<?xml version="1.0" encoding="iso-8859-1"?>
<!-- Generator: Adobe Illustrator 19.2.0, SVG Export Plug-In . SVG Version: 6.00 Build 0)  -->
<svg version="1.1" id="_x30_" xmlns="http://www.w3.org/2000/svg" xmlns:xlink="http://www.w3.org/1999/xlink" x="0px" y="0px"
	 viewBox="0 0 612 792" style="enable-background:new 0 0 612 792;" xml:space="preserve">
<g id="LWPOLYLINE">
	<path style="fill:#F62020;stroke:#000000;stroke-width:6;stroke-miterlimit:10;" d="M373.32,514.627l1.445-0.369L373.32,514.627
		c-5.165,2.292-10.085,4.991-14.703,8.062l-4.136-1.07l-0.565,0.144l-3.825-3.439l-2.874,0.734l1.226,2.567l-155.487,40.316
		c-0.849,0.22-1.729,0.332-2.613,0.332c-5.127,0-9.283-3.674-9.283-8.206V150.734c0-4.532-4.156-8.206-9.283-8.206h-0.877
		c-5.127,0-9.283,3.674-9.283,8.206v265.343V572c0,4.532,4.156,8.206,9.283,8.206h9.747c0.859,0,1.714-0.105,2.54-0.313
		c0,0,170.303-42.828,170.303-42.828l0.512,2.75l2.874-0.734l1.161-4.712l0.565-0.144l2.853-2.855
		c5.759,0.421,11.55,0.384,17.302-0.111c0,0,4.244-1.084,4.244-1.084l32.461-8.417l-0.077,5.862l-0.616,46.67l7.583-1.936
		l13.63-55.71l43.06-11.124l1.423-0.363c6.517-2.03,12.651-4.914,18.198-8.556c1.802-1.156,3.447-2.492,4.901-3.983
		c0.548-0.668,0.896-1.448,1.011-2.266c0.026-0.156-0.026-0.314-0.142-0.433c-0.591-0.638-1.356-1.134-2.223-1.441
		c-2.129-0.575-4.327-0.93-6.549-1.059c-6.889-0.466-13.818-0.014-20.555,1.341l-1.423,0.363l-43.136,10.889l-45.138-40.701
		l-7.583,1.936l32.199,44.006L373.32,514.627z"/>
</g>
</svg>
